# xmcd
#
# Track frame offsets:
#	150
#	16805
#	34581
#	53484
#	70323
#	86213
#	100870
#	116002
#	136138
#	155762
#
# Disc length: 2299 seconds
# Revision: 0
# Processed by: cddbd v1.5.2PL0 Copyright (c) Steve Scherf et al.
# Submitted via: dBpowerAMP V12.0
#
DISCID=7c08f90a
DTITLE=Den and Bobbie West - Look For The Old Road
DYEAR=2009
DGENRE=Country
TTITLE0=Look For The Old Road
TTITLE1=Pressin' On
TTITLE2=And We're Changed Again
TTITLE3=Brand New Start
TTITLE4=Is Anything Too Hard For God
TTITLE5=I Remember My Song In The Night
TTITLE6=Lord I'll Be There Soon
TTITLE7=The Sound Of Rushing Water
TTITLE8=Winding Roads
TTITLE9=Sunday Morning
EXTD=
EXTT0=
EXTT1=
EXTT2=
EXTT3=
EXTT4=
EXTT5=
EXTT6=
EXTT7=
EXTT8=
EXTT9=
PLAYORDER=
